<svg version="1.0" xmlns="http://www.w3.org/2000/svg"
 width="24.000000pt" height="24.000000pt" viewBox="0 0 24.000000 24.000000"
 preserveAspectRatio="xMidYMid meet">
<metadata>
Created by potrace 1.16, written by Peter Selinger 2001-2019
</metadata>
<g transform="translate(0.000000,24.000000) scale(0.100000,-0.100000)"
fill="#F28C18" stroke="none">
<path d="M20 120 l0 -80 100 0 100 0 0 80 0 80 -100 0 -100 0 0 -80z m140 30
c-19 -16 -37 -29 -40 -29 -3 0 -21 13 -40 29 l-34 30 74 0 74 0 -34 -30z m-40
-60 c7 0 28 11 47 26 l33 25 0 -40 0 -41 -80 0 -80 0 0 41 0 40 33 -25 c19
-15 40 -26 47 -26z"/>
</g>
</svg>
