<svg version="1.0" xmlns="http://www.w3.org/2000/svg"
 width="24.000000pt" height="24.000000pt" viewBox="0 0 24.000000 24.000000"
 preserveAspectRatio="xMidYMid meet">
<metadata>
Created by potrace 1.16, written by Peter Selinger 2001-2019
</metadata>
<g transform="translate(0.000000,24.000000) scale(0.100000,-0.100000)"
fill="#F28C18" stroke="none">
<path d="M47 192 c-21 -22 -27 -38 -27 -72 0 -34 6 -50 27 -72 15 -15 33 -28
40 -28 20 0 16 30 -4 31 -13 0 -11 3 7 11 l25 10 -22 10 c-26 13 -35 32 -27
62 4 19 12 22 54 22 42 0 50 -3 54 -22 8 -29 -2 -52 -23 -59 -13 -4 -16 -13
-13 -35 5 -37 12 -37 51 -4 27 22 31 33 31 73 0 39 -5 52 -28 74 -40 39 -107
38 -145 -1z"/>
</g>
</svg>
