<svg version="1.0" xmlns="http://www.w3.org/2000/svg"
 width="24.000000pt" height="24.000000pt" viewBox="0 0 24.000000 24.000000"
 preserveAspectRatio="xMidYMid meet">
<metadata>
Created by potrace 1.16, written by Peter Selinger 2001-2019
</metadata>
<g transform="translate(0.000000,24.000000) scale(0.100000,-0.100000)"
fill="#F28C18" stroke="none">
<path d="M60 200 c-32 -32 -27 -97 11 -143 35 -43 57 -46 86 -14 31 34 43 62
43 101 0 49 -28 76 -80 76 -27 0 -47 -7 -60 -20z m88 -16 c30 -20 29 -65 -2
-101 l-24 -28 -26 24 c-34 32 -36 83 -4 105 12 9 25 16 28 16 3 0 16 -7 28
-16z"/>
<path d="M110 165 c0 -8 -7 -15 -15 -15 -8 0 -15 -4 -15 -10 0 -5 7 -10 15
-10 8 0 15 -7 15 -15 0 -8 5 -15 10 -15 6 0 10 7 10 15 0 8 7 15 15 15 8 0 15
5 15 10 0 6 -7 10 -15 10 -8 0 -15 7 -15 15 0 8 -4 15 -10 15 -5 0 -10 -7 -10
-15z"/>
</g>
</svg>
