<svg version="1.0" xmlns="http://www.w3.org/2000/svg"
 width="24.000000pt" height="24.000000pt" viewBox="0 0 24.000000 24.000000"
 preserveAspectRatio="xMidYMid meet">
<metadata>
Created by potrace 1.16, written by Peter Selinger 2001-2019
</metadata>
<g transform="translate(0.000000,24.000000) scale(0.100000,-0.100000)"
fill="#F28C18" stroke="none">
<path d="M113 173 c-51 -19 -93 -41 -93 -48 0 -19 47 -27 73 -14 18 9 20 9 9
-2 -13 -14 -17 -69 -4 -69 4 0 13 5 19 11 8 8 18 6 37 -6 15 -10 29 -15 33
-12 8 9 33 118 33 150 0 15 -3 27 -7 27 -5 -1 -50 -17 -100 -37z"/>
</g>
</svg>
